<?xml version="1.0" standalone="no"?>
<!DOCTYPE svg PUBLIC "-//W3C//DTD SVG 20010904//EN"
 "http://www.w3.org/TR/2001/REC-SVG-20010904/DTD/svg10.dtd">
<svg version="1.0" xmlns="http://www.w3.org/2000/svg"
 width="800.000000pt" height="800.000000pt" viewBox="0 0 800.000000 800.000000"
 preserveAspectRatio="xMidYMid meet">
<metadata>
Created by potrace 1.11, written by Peter Selinger 2001-2013
</metadata>
<g transform="translate(0.000000,800.000000) scale(0.100000,-0.100000)"
fill="#000000" stroke="none">
<path d="M3129 4621 c-52 -11 -105 -47 -131 -88 -17 -29 -23 -56 -26 -125 l-4
-88 -54 0 -54 0 0 -60 0 -60 57 0 56 0 -6 -300 -5 -300 89 0 89 0 0 300 0 300
65 0 65 0 0 60 0 60 -65 0 -65 0 0 45 c0 25 6 61 14 80 16 36 45 47 115 42 33
-2 35 0 47 48 19 69 18 73 -13 79 -57 11 -139 14 -174 7z"/>
<path d="M2490 4110 l0 -510 85 0 85 0 0 510 0 510 -85 0 -85 0 0 -510z"/>
<path d="M975 4566 c-155 -41 -227 -120 -227 -246 0 -81 16 -122 66 -168 53
-49 75 -61 234 -124 212 -84 232 -99 232 -174 0 -54 -37 -88 -115 -104 -129
-27 -244 24 -261 116 l-6 34 -84 0 -84 0 0 -30 c0 -43 35 -130 70 -171 37 -46
98 -82 175 -104 91 -27 251 -17 334 20 91 41 145 105 161 189 17 91 1 154 -53
213 -54 59 -95 81 -267 148 -182 71 -210 91 -210 149 0 69 54 106 156 106 85
0 150 -38 169 -97 6 -22 12 -23 91 -23 97 0 98 1 63 94 -25 67 -96 136 -167
161 -63 22 -213 28 -277 11z"/>
<path d="M3730 4485 l0 -75 151 0 152 0 -5 -405 -4 -405 88 0 88 0 0 405 0
405 150 0 150 0 0 75 0 75 -385 0 -385 0 0 -75z"/>
<path d="M6920 4415 l0 -95 -50 0 -50 0 0 -60 0 -60 50 0 50 0 0 -227 c0 -250
6 -277 65 -336 31 -31 109 -57 169 -57 55 0 156 30 156 46 0 7 -5 36 -11 64
-9 42 -14 50 -27 45 -10 -4 -42 -9 -72 -12 -45 -4 -59 -2 -80 15 l-25 20 -3
221 -3 221 100 0 101 0 0 60 0 60 -100 0 -100 0 0 95 0 95 -85 0 -85 0 0 -95z"/>
<path d="M1903 4330 c-89 -19 -176 -88 -221 -177 -48 -93 -53 -246 -12 -355
26 -72 100 -154 166 -188 98 -49 252 -36 341 29 43 31 86 95 97 144 l6 27 -89
0 c-80 0 -90 -2 -96 -20 -10 -30 -52 -58 -100 -65 -65 -10 -126 20 -153 76
-11 24 -22 60 -24 79 l-3 35 234 3 233 2 -4 93 c-4 100 -29 172 -82 234 -56
66 -190 105 -293 83z m168 -166 c27 -26 49 -77 49 -116 0 -16 -14 -18 -150
-18 -166 0 -165 -1 -139 67 37 98 169 135 240 67z"/>
<path d="M5453 4330 c-89 -19 -176 -88 -221 -177 -48 -93 -53 -246 -12 -355
26 -72 100 -154 166 -188 98 -49 252 -36 341 29 43 31 86 95 97 144 l6 27 -89
0 c-80 0 -90 -2 -96 -20 -10 -30 -52 -58 -100 -65 -65 -10 -126 20 -153 76
-11 24 -22 60 -24 79 l-3 35 234 3 233 2 -4 93 c-4 100 -29 172 -82 234 -56
66 -190 105 -293 83z m168 -166 c27 -26 49 -77 49 -116 0 -16 -14 -18 -150
-18 -166 0 -165 -1 -139 67 37 98 169 135 240 67z"/>
<path d="M6237 4330 c-66 -12 -152 -55 -175 -88 -22 -31 -42 -86 -42 -113 0
-17 9 -19 93 -19 l92 0 15 33 c22 46 72 69 143 64 47 -3 63 -9 85 -30 24 -24
27 -36 30 -105 l4 -79 -74 13 c-144 26 -263 10 -339 -44 -100 -70 -103 -220
-5 -310 56 -52 103 -67 206 -67 96 0 147 20 193 74 28 33 37 26 37 -30 l0 -29
81 0 81 0 -4 268 -3 267 -29 58 c-31 63 -83 109 -145 128 -50 14 -186 20 -244
9z m208 -439 c39 -8 44 -38 14 -91 -39 -70 -118 -102 -197 -81 -82 22 -109
106 -51 155 28 24 38 26 117 25 48 -1 101 -4 117 -8z"/>
<path d="M4931 4308 c-30 -15 -54 -37 -75 -72 l-31 -49 -3 66 -3 67 -84 0 -85
0 0 -360 0 -360 84 0 84 0 3 208 c4 199 5 210 29 257 35 68 75 89 162 89 l69
-1 -3 86 -3 86 -50 3 c-36 2 -63 -4 -94 -20z"/>
</g>
</svg>
